<?xml version="1.0" encoding="utf-8"?>
<!-- Generator: Adobe Illustrator 28.1.0, SVG Export Plug-In . SVG Version: 6.00 Build 0)  -->
<svg version="1.1" id="Layer_1" xmlns="http://www.w3.org/2000/svg" xmlns:xlink="http://www.w3.org/1999/xlink" x="0px" y="0px"
	 viewBox="0 0 500 500" style="enable-background:new 0 0 500 500;" xml:space="preserve">
<style type="text/css">
	.st0{clip-path:url(#SVGID_00000121244650508330554910000016324126643778956468_);}
	.st1{fill:#A6996F;}
	.st2{clip-path:url(#SVGID_00000084498958060403823910000005131521001797006464_);}
	.st3{fill:#FFFFFF;}
	.st4{clip-path:url(#SVGID_00000127746516504134113360000006899624685911154582_);}
	.st5{clip-path:url(#SVGID_00000026141940309196376150000003888735623647066509_);}
	.st6{clip-path:url(#SVGID_00000083804116298685036730000006149027277102474672_);}
</style>
<g>
	<defs>
		<rect id="SVGID_1_" x="105.3" y="239.3" width="18.2" height="26.5"/>
	</defs>
	<clipPath id="SVGID_00000015353515685546975890000006577405346694040705_">
		<use xlink:href="#SVGID_1_"  style="overflow:visible;"/>
	</clipPath>
	<g style="clip-path:url(#SVGID_00000015353515685546975890000006577405346694040705_);">
		<path class="st1" d="M123.5,251.8c0,8.8-4.7,13-11.5,13.9c-0.8,0.2-2.7-0.7-4.3-2.7c-1.5-2-2.4-4.4-2.4-6.4c0-0.1,0-0.2,0-0.3
			c1.7,0.2,4.6,0.4,6.4-0.2c4.5-1.4,5.9-6.3,5.9-11.4c0-1.9-0.4-3.7-1-5.4C120.8,242,123.5,246.6,123.5,251.8"/>
	</g>
</g>
<g>
	<g transform="translate(131.595514, 166.924557)">
	</g>
</g>
<g>
	<g transform="translate(147.187118, 166.924557)">
	</g>
</g>
<g>
	<g transform="translate(162.778722, 166.924557)">
	</g>
</g>
<g>
	<g transform="translate(178.370326, 166.924557)">
	</g>
</g>
<g>
	<g transform="translate(193.96193, 166.924557)">
	</g>
</g>
<g>
	<g transform="translate(209.553534, 166.924557)">
	</g>
</g>
<g>
	<g transform="translate(225.145138, 166.924557)">
	</g>
</g>
<g>
	<g transform="translate(240.736742, 166.924557)">
	</g>
</g>
<g>
	<g transform="translate(256.328346, 166.924557)">
	</g>
</g>
<g>
	<g transform="translate(271.91995, 166.924557)">
	</g>
</g>
<g>
	<defs>
		<rect id="SVGID_00000130632566542230030350000017992687375304373172_" x="70.4" y="239.3" width="18.2" height="26.5"/>
	</defs>
	<clipPath id="SVGID_00000078736493448346395120000002510909261875289992_">
		<use xlink:href="#SVGID_00000130632566542230030350000017992687375304373172_"  style="overflow:visible;"/>
	</clipPath>
	<g style="clip-path:url(#SVGID_00000078736493448346395120000002510909261875289992_);">
		<path class="st1" d="M70.4,251.8c0-5.3,2.7-9.9,6.8-12.6c-0.7,1.7-1,3.5-1,5.4c0,5.1,1.4,10,5.9,11.4c1.8,0.6,4.7,0.4,6.4,0.2
			c0,0.1,0,0.2,0,0.3c0,2-0.9,4.4-2.4,6.4c-1.5,2.1-3.4,2.9-4.3,2.7C75.2,264.9,70.4,260.7,70.4,251.8"/>
	</g>
</g>
<g>
	<g transform="translate(50.168394, 166.924557)">
		<g>
			<path d="M41.7,57.1V4.7H31.2v52.3H41.7z"/>
		</g>
	</g>
</g>
<g>
	<g transform="translate(66.858009, 166.924557)">
		<g>
			<path d="M47.2,28.6l26.5,29.6h2.8V4.8H66v29.6L39.6,3.6h-2.8v53.4h10.5V28.6z"/>
		</g>
	</g>
</g>
<g>
	<g transform="translate(105.507624, 166.924557)">
		<g>
			<path d="M75.8,15.2V4.7H49.7v52.3h10.5V36.1h13.3V25.6H60.1V15.2H75.8z"/>
		</g>
	</g>
</g>
<g>
	<g transform="translate(50.168394, 229.724557)">
		<g>
			<path d="M31.2,78h20.7c8.5,0,15.4-7,15.4-15.7c0-4.1-2-8.1-5.4-10.5c3.3-2.3,4.7-6.4,4.8-10.3c0.2-9.2-5.6-15.9-14.9-15.9H31.2
				V78z M41.8,36H51c3,0,4.8,2.3,4.8,5.3c0,2.9-1.8,5.3-4.8,5.3h-9.3V36z M41.8,57H51c3,0,5.3,2.3,5.3,5.2c0,2.9-2.3,5.3-5.3,5.3
				h-9.3V57z"/>
		</g>
	</g>
</g>
<g>
	<g transform="translate(84.26131, 229.724557)">
		<g>
			<path d="M80.1,59.8V25.6H69.7v34c0,11-17,11-17,0v-34H42.3v34.1C42.3,84.6,80.1,84.6,80.1,59.8z"/>
		</g>
	</g>
</g>
<g>
	<g transform="translate(121.099227, 229.724557)">
		<g>
			<path d="M81,36.1V25.6H54.9V78h10.5V57h13.3V46.6H65.3V36.1H81z"/>
		</g>
	</g>
</g>
<g>
	<g transform="translate(147.176739, 229.724557)">
		<g>
			<path d="M89.7,36.1V25.6H63.5V78H74V57h13.3V46.6H74V36.1H89.7z"/>
		</g>
	</g>
</g>
<g>
	<g transform="translate(173.254251, 229.724557)">
		<g>
			<path d="M69.8,74.6c7.1,3.7,13.6,4,16.5,3.8c9.8-0.5,15.8-7.2,15.8-15.9c0-8.3-7-13-15.2-16c-3-1-5.6-2.3-5.9-5.3
				c-0.2-2.9,1.5-5.6,5.2-5.9c1.6-0.1,4.9-0.1,10.7,2.2l1.3-10.1c-6.7-2.3-10.3-2.3-13-2.2c-8.7,0.4-14.8,7.2-14.8,16
				s7.3,13,15.5,16c2.9,1,5.2,2.3,5.4,5.3c0.3,2.9-2.3,5.1-5.4,5.3c-2.4,0.2-8.9,0.1-14.9-4.2L69.8,74.6z"/>
		</g>
	</g>
</g>
<path d="M264.9,244.8l-3.4,3.4c-1,1-2.8,0.9-3.9-0.2l-16.7-16.7c-1.1-1.1-10.4-12-9.4-13.1l3.1-3.1c1-1,12,7.8,13.1,8.9l16.9,16.9
	C265.8,242,265.9,243.8,264.9,244.8z"/>
<circle cx="216.2" cy="198.4" r="29.3"/>
<circle class="st3" cx="216.2" cy="198.4" r="21.6"/>
<rect x="214.6" y="196" class="st1" width="26.4" height="6.7"/>
<rect x="223.9" y="207.3" class="st1" width="32.4" height="6.8"/>
<rect x="230.1" y="184.2" class="st1" width="20.2" height="6.7"/>
<g>
	<path class="st1" d="M202.7,196h6.7v6.7h-6.7V196z"/>
	<path class="st1" d="M202.7,207.7h15.1v6.7h-15.1V207.7z"/>
	<path class="st1" d="M202.7,184.2h11.8v6.7h-11.8V184.2z"/>
	<path class="st1" d="M219.5,184.2h6.7v6.7h-6.7V184.2z"/>
	<g>
		<defs>
			<rect id="SVGID_00000155131464483044241420000003649329178089304729_" x="255.3" y="184.1" width="11.5" height="8"/>
		</defs>
		<clipPath id="SVGID_00000021820635596974976470000010396068359812373689_">
			<use xlink:href="#SVGID_00000155131464483044241420000003649329178089304729_"  style="overflow:visible;"/>
		</clipPath>
		<g style="clip-path:url(#SVGID_00000021820635596974976470000010396068359812373689_);">
			<path class="st1" d="M256.5,184.2h10.1v6.7h-10.1V184.2z"/>
		</g>
	</g>
	<g>
		<defs>
			<rect id="SVGID_00000080898038919192832210000003425331424827395481_" x="259.3" y="206.7" width="7.5" height="8"/>
		</defs>
		<clipPath id="SVGID_00000086649940467462915420000013569820440548437674_">
			<use xlink:href="#SVGID_00000080898038919192832210000003425331424827395481_"  style="overflow:visible;"/>
		</clipPath>
		<g style="clip-path:url(#SVGID_00000086649940467462915420000013569820440548437674_);">
			<path class="st1" d="M259.8,207.7h6.7v6.7h-6.7V207.7z"/>
		</g>
	</g>
	<g>
		<defs>
			<rect id="SVGID_00000163763357024680183870000003383482605065041323_" x="251.3" y="194.7" width="15.5" height="8"/>
		</defs>
		<clipPath id="SVGID_00000074424058932582571200000014663920591934071187_">
			<use xlink:href="#SVGID_00000163763357024680183870000003383482605065041323_"  style="overflow:visible;"/>
		</clipPath>
		<g style="clip-path:url(#SVGID_00000074424058932582571200000014663920591934071187_);">
			<path class="st1" d="M251.4,196h15.1v6.7h-15.1V196z"/>
		</g>
	</g>
</g>
</svg>
